<?xml version="1.0" standalone="no"?>
<!DOCTYPE svg PUBLIC "-//W3C//DTD SVG 20010904//EN"
 "http://www.w3.org/TR/2001/REC-SVG-20010904/DTD/svg10.dtd">
<svg version="1.0" xmlns="http://www.w3.org/2000/svg"
 width="1024.000000pt" height="1024.000000pt" viewBox="0 0 1024.000000 1024.000000"
 preserveAspectRatio="xMidYMid meet">
<metadata>
Created by potrace 1.11, written by Peter Selinger 2001-2013
</metadata>
<g transform="translate(0.000000,1024.000000) scale(0.100000,-0.100000)"
fill="#000000" stroke="none">
<path d="M2590 8988 c-193 -40 -365 -168 -448 -334 -61 -121 -73 -176 -76
-348 0 -58 -3 -107 -6 -109 -3 -3 -26 -7 -52 -10 -248 -30 -436 -255 -421
-506 13 -230 184 -419 409 -452 l70 -11 -1 -153 c0 -84 -3 -156 -6 -160 -4 -3
-24 -8 -45 -11 -286 -35 -480 -308 -417 -587 31 -137 131 -265 255 -326 68
-34 86 -39 163 -48 l51 -5 0 -159 c0 -88 -3 -159 -6 -160 -3 0 -13 -2 -22 -4
-9 -2 -34 -5 -55 -8 -169 -25 -336 -175 -379 -342 -48 -189 0 -361 134 -487
81 -76 191 -126 290 -132 l37 -2 1 -158 c0 -103 -4 -159 -10 -161 -6 -1 -40
-8 -76 -14 -385 -69 -530 -559 -243 -826 87 -81 192 -125 318 -134 14 -1 15
-321 1 -321 -179 -7 -343 -114 -421 -275 -39 -81 -52 -145 -49 -232 10 -229
178 -419 405 -457 l74 -12 1 -105 c2 -151 11 -203 50 -299 36 -86 100 -176
171 -240 68 -60 195 -125 285 -145 52 -11 517 -14 2779 -14 1904 -1 2733 2
2775 10 270 49 482 268 522 539 3 25 6 1532 6 3350 0 3085 -1 3309 -17 3370
-50 190 -180 346 -360 430 -132 62 58 58 -2917 58 -1675 0 -2742 -4 -2770 -10z
m5498 -491 c17 -10 44 -36 59 -58 l27 -41 0 -3272 c0 -3157 -1 -3272 -19
-3309 -10 -22 -36 -51 -58 -65 l-40 -27 -2690 0 c-2688 0 -2689 0 -2731 20
-64 32 -86 85 -86 205 l0 95 76 13 c230 36 401 237 402 471 1 263 -196 473
-460 490 -16 1 -18 16 -18 161 0 121 3 160 13 161 133 7 256 65 342 161 157
174 166 432 22 623 -71 93 -207 170 -323 182 l-54 6 0 162 c0 148 2 162 18
162 94 -5 234 57 318 141 196 195 189 507 -15 700 -70 66 -190 120 -275 124
l-46 1 0 164 0 163 33 0 c91 0 227 64 306 142 174 175 187 462 29 652 -79 96
-226 169 -350 175 -16 1 -18 16 -18 161 0 145 2 160 18 161 355 17 570 402
401 719 -72 136 -248 249 -386 250 l-33 0 0 101 c0 86 3 107 22 140 24 43 58
69 101 78 15 3 1233 6 2705 6 2518 -1 2679 -2 2710 -18z m-5470 -649 c96 -47
119 -180 44 -250 -54 -51 -61 -52 -337 -53 -280 -1 -334 5 -372 47 -63 70 -60
172 7 233 45 41 65 44 346 44 253 0 274 -2 312 -21z m-8 -1288 c60 -30 100
-91 100 -150 0 -48 -42 -112 -90 -137 -43 -23 -50 -24 -307 -23 -144 1 -277 5
-294 10 -152 44 -143 277 12 309 63 13 552 6 579 -9z m-23 -1285 c45 -8 89
-48 108 -99 32 -83 -8 -174 -90 -206 -42 -17 -542 -16 -592 1 -58 19 -101 76
-108 144 -2 22 18 80 37 106 21 28 75 56 118 61 45 5 494 0 527 -7z m45 -1313
c48 -30 81 -96 74 -151 -7 -57 -32 -95 -80 -122 -40 -23 -48 -23 -321 -23
-262 -1 -283 1 -314 19 -95 56 -111 176 -35 256 16 16 42 33 59 38 16 5 154 8
305 8 268 -2 276 -3 312 -25z m-17 -1284 c17 -9 40 -27 52 -40 70 -75 44 -201
-51 -247 -39 -20 -60 -21 -302 -21 -142 0 -274 4 -293 10 -92 26 -141 143 -97
229 17 33 64 70 102 80 13 3 145 6 292 5 224 0 272 -3 297 -16z"/>
<path d="M3688 7213 c-3 -7 -2 -278 1 -308 1 -7 641 -9 1904 -8 1046 1 1913 2
1927 2 l25 1 -2 138 c0 75 -2 147 -2 160 l-1 22 -1924 0 c-1059 0 -1926 -3
-1928 -7z"/>
<path d="M3685 6100 c0 -99 4 -160 10 -161 6 -1 871 -2 1924 -3 1616 -1 1914
1 1919 13 4 11 6 207 3 289 l-1 22 -1927 0 -1928 0 0 -160z"/>
<path d="M3715 5270 l-30 -5 0 -158 0 -157 1928 0 c1706 0 1927 2 1928 15 0 8
2 80 2 160 2 139 1 145 -18 146 -83 4 -3787 3 -3810 -1z"/>
<path d="M3688 4297 c-3 -10 -2 -291 1 -308 1 -3 867 -5 1926 -5 l1925 0 1 20
c0 12 1 84 1 161 l1 140 -1926 2 c-1451 1 -1926 -2 -1929 -10z"/>
<path d="M3689 3338 c-1 -2 -2 -74 -3 -161 l-1 -157 35 -1 c44 -1 3766 -1
3800 0 l25 1 0 160 0 160 -1927 0 c-1061 0 -1928 -1 -1929 -2z"/>
</g>
</svg>
